<svg xmlns="http://www.w3.org/2000/svg" width="140" height="32" viewBox="0 0 140 32">
  <g fill="#FFF" fill-rule="evenodd">
    <path d="M11.1022346 19.4692683L9.69441341 19.4692683 9.69441341 21.1278049 16.7022346 21.1278049 16.7022346 19.4770732 14.6413408 19.4770732C14.6413408 19.4770732 14.7 10.6965854 14.6413408 9.83414634 14.4692737 7.32097561 12.8346369 5.9004878 10.5234637 5.9004878L9.86648045 5.9004878C8.04584455 6.07390833 6.31625713 6.7767804 4.89217877 7.92195122 4.81710234 6.93826531 3.97126776 6.19278874 2.98379888 6.24L.16424581 6.24.16424581 7.88682927 1.12625698 7.88682927C1.4547486 7.88682927 1.59162011 8.14439024 1.59162011 8.44097561L1.59162011 19.4419512.183798883 19.4419512.183798883 21.1004878 7.47318436 21.1004878 7.47318436 19.4458537 5.36536313 19.4458537 5.36536313 9.4204878C6.55472007 8.85117148 7.84836472 8.53109269 9.16648045 8.48 10.9106145 8.48 11.1217877 10.1034146 11.1217877 12.7180488L11.1022346 19.4692683zM32.7005587 7.98439024C33.4249931 7.54336163 34.2832753 7.37455464 35.1212291 7.50829268 36.5681564 7.64878049 36.9044693 8.64780488 36.9670391 10.3219512 36.9905028 10.9970732 36.998324 11.3795122 36.9944134 11.7970732L31.5195531 11.7970732C31.6094972 9.54536585 31.9927374 8.69073171 32.7005587 7.98439024zM34.6558659 5.81853659C29.7793296 5.81853659 27.7301676 9.02243902 27.7301676 13.8341463 27.7301676 18.177561 30.6709497 21.5414634 34.9374302 21.5414634 36.7876318 21.5741792 38.6168456 21.1463325 40.2597765 20.2965854L39.6340782 18.8682927C37.7100559 19.582439 35.5787709 20.1443902 33.6743017 18.844878 32.7865922 18.24 31.5234637 16.764878 31.5234637 13.564878L40.5569832 13.564878C40.5764017 12.4875756 40.5175886 11.4102847 40.3810056 10.3414634 39.9351955 7.39512195 37.8547486 5.80292683 34.6480447 5.80292683L34.6558659 5.81853659z"/>
    <polygon points="23.628 6.279 18.787 6.279 18.787 7.902 20.194 7.902 20.194 19.461 18.787 19.461 18.787 21.14 25.697 21.14 25.697 19.461 23.628 19.461"/>
    <ellipse cx="21.919" cy="1.869" rx="1.799" ry="1.795"/>
    <path d="M137.188268 10.1541463C137.933697 10.2953816 138.703433 10.0979858 139.288268 9.61560976 140.089944 8.74926829 140.258101 6.92292683 138.955866 6.18926829 137.688827 5.57268293 136.640782 5.72487805 135.307263 6.65365854 134.666697 7.13729771 134.105911 7.71797931 133.645251 8.37463415L133.426257 6.27121951 129.726816 6.27121951 129.586034 7.78926829 131.244134 7.78926829 130.203911 19.6058537 128.811732 19.6058537 128.678771 21.1356098 134.990503 21.1356098 135.123464 19.6058537 132.843575 19.6058537 133.598324 10.9463415C133.865665 10.2037857 134.280682 9.52282865 134.818436 8.94439024 135.286844 8.40823542 135.888351 8.00448031 136.56257 7.77365854 136.817317 7.70478981 137.083521 7.68885094 137.344693 7.72682927L137.188268 10.1541463zM108.981006 21.2097561C110.15419 21.0185366 109.864804 19.4965854 109.829609 19.4965854L107.760894 19.4965854 108.891061 6.28682927 104.61676 6.28682927 104.479888 7.80097561 106.07933 7.80097561 105.242458 17.2682927C103.678212 18.6497561 101.621229 19.4692683 100.428492 19.4692683 99.3100559 19.4692683 99.1692737 18.0565854 99.4586592 15.1219512 99.4586592 15.1921951 99.724581 11.8321951 100.217318 6.28292683L95.8217877 6.28292683 95.6810056 7.80097561 97.3547486 7.80097561C97.3547486 7.80097561 96.5296089 16.8663415 96.5374302 17.724878 96.5608939 20.4565854 97.9413408 21.5102439 100.381564 21.5102439 101.648603 21.5102439 103.568715 20.6126829 105.262011 19.137561L106.407821 21.2136585 108.981006 21.2097561zM125.601117 21.2097561C126.774302 21.0185366 126.484916 19.4965854 126.449721 19.4965854L124.381006 19.4965854 125.511173 6.28292683 121.236872 6.28292683 121.1 7.79707317 122.699441 7.79707317 121.86257 17.2643902C120.298324 18.6458537 118.241341 19.4653659 117.048603 19.4653659 115.930168 19.4653659 115.789385 18.0526829 116.078771 15.1180488 116.078771 15.1882927 116.344693 11.8282927 116.83743 6.27902439L112.44581 6.27902439 112.305028 7.79707317 113.959218 7.79707317C113.959218 7.79707317 113.134078 16.862439 113.141899 17.7209756 113.165363 20.4526829 114.54581 21.5063415 116.986034 21.5063415 118.256983 21.5063415 120.173184 20.6087805 121.86648 19.1336585L123.012291 21.2097561 125.601117 21.2097561zM48.0340782 6.26341463L42.9972067 6.26341463 42.9972067 7.91804878 44.4715084 7.91804878 44.4715084 17.5531707C44.6318436 19.7970732 46.2782123 21.4868293 48.5893855 21.4868293 48.7378601 21.4955599 48.886721 21.4955599 49.0351955 21.4868293 50.6659218 21.3580488 52.9458101 20.5892683 54.2167598 19.4653659 54.1792209 19.9239962 54.3463764 20.3757891 54.6735676 20.7000393 55.0007588 21.0242895 55.4546467 21.1879578 55.9139665 21.1473171L58.9446927 21.1473171 58.9446927 19.5004878 57.9826816 19.5004878C57.6541899 19.5004878 57.5290503 19.2429268 57.5290503 18.9463415L57.5290503 6.26341463 52.2888268 6.26341463 52.2888268 7.91804878 53.7670391 7.91804878 53.7670391 17.9434146C52.5790703 18.512737 51.2866991 18.83283 49.9698324 18.8839024 48.2256983 18.8839024 48.0340782 17.2604878 48.0340782 14.6458537L48.0340782 6.26341463z"/>
    <polygon points="59.875 6.263 59.875 7.906 61.346 7.906 65.839 21.393 67.708 21.393 70.708 12.152 74.177 21.393 75.979 21.393 80.187 7.906 81.869 7.906 81.861 6.263 77.434 6.263 77.434 7.906 78.447 7.906 75.909 16.023 73.105 7.906 74.431 7.906 74.431 6.263 69.054 6.263 69.054 7.906 70.278 7.906 67.74 15.875 65.104 7.906 66.477 7.906 66.477 6.263"/>
    <rect width="1.318" height="3.984" x="137.321" y="27.703"/>
    <rect width="1" height="1.99" x="129.023" y="27.703"/>
    <rect width="1" height="1.99" x="133.282" y="27.703"/>
    <rect width="1" height="1.99" x="120.502" y="27.703"/>
    <rect width="1" height="1.99" x="124.764" y="27.703"/>
    <rect width="1.318" height="3.984" x="116.028" y="27.703"/>
    <rect width="1" height="1.99" x="107.726" y="27.703"/>
    <rect width="1" height="1.99" x="111.988" y="27.703"/>
    <rect width="1" height="1.99" x="99.208" y="27.703"/>
    <rect width="1" height="1.99" x="103.467" y="27.703"/>
    <rect width="1.318" height="3.984" x="94.731" y="27.703"/>
    <rect width="1" height="1.99" x="86.432" y="27.703"/>
    <rect width="1" height="1.99" x="90.691" y="27.703"/>
    <rect width="1" height="1.99" x="77.911" y="27.703"/>
    <rect width="1" height="1.99" x="82.17" y="27.703"/>
    <rect width="1.318" height="3.984" x="73.434" y="27.703"/>
    <rect width="1" height="1.99" x="65.135" y="27.703"/>
    <rect width="1" height="1.99" x="69.394" y="27.703"/>
    <rect width="1" height="1.99" x="56.614" y="27.703"/>
    <rect width="1" height="1.99" x="60.877" y="27.703"/>
    <path d="M84.3949721,17.2097561 L82.5452514,17.2097561 L82.5452514,20.3863415 C82.5452514,20.3863415 84.7703911,21.5570732 86.698324,21.6195122 C87.7268156,21.6546341 89.3145251,21.6195122 90.5581006,20.9404878 C92.0636872,20.1131707 93.0765363,18.9034146 93.0765363,17.2253659 C93.0765363,15.0712195 91.801676,13.3541463 89.2011173,12.2146341 C87.4608939,11.5629268 86.0022346,10.8878049 86.0022346,9.42439024 C85.9571833,8.86193556 86.1944833,8.31377831 86.6357542,7.96097561 C87.1011173,7.57073171 87.7346369,7.38341463 88.6614525,7.38341463 C89.4057372,7.39982512 90.1362807,7.58675234 90.796648,7.9297561 L90.796648,9.88097561 L92.4899441,9.88097561 L92.4899441,7.02829268 C91.2806203,6.28440215 89.8975153,5.86872382 88.4776536,5.82243902 C87.3812632,5.78493855 86.2901545,5.99017658 85.2826816,6.42341463 C83.7418994,7.16878049 82.6469274,8.51512195 82.6469274,10.0956098 C82.6469274,12.3746341 84.4497207,13.9239024 86.8039106,14.8370732 C88.5363128,15.5082927 89.7251397,16.32 89.7798883,17.5336585 C89.8406875,18.1564366 89.649163,18.7775898 89.2480447,19.2585366 C88.6692737,19.8439024 87.8480447,19.9531707 86.8782123,19.9531707 C86.0261205,19.9390275 85.1840808,19.7670019 84.3949721,19.4458537 L84.3949721,17.2097561 Z"/>
  </g>
</svg>
