<svg xmlns="http://www.w3.org/2000/svg" width="118" height="22" viewBox="0 0 118 22">
  <path fill="#FFF" d="M69.8285894,14.194923 C69.3269629,17.4851667 67.6737764,19.2099093 65.6890803,19.2099093 C64.4328331,19.2099093 63.7087461,18.3038026 63.9224826,16.8975431 L64.6160358,12.4298094 C64.8864779,10.7745948 65.8461112,9.48047711 67.5669082,9.48047711 C69.4709079,9.48047711 70.3389398,10.8104802 69.8285894,14.194923 Z M63.0326408,20.7552248 C63.300902,20.7552248 63.9442925,21.917015 66.0336759,21.917015 C70.4850658,21.917015 73.030275,18.604343 73.7281902,14.333979 C74.609308,9.06555204 72.1186234,6.67020084 68.9801863,6.67020084 C67.5036596,6.67020084 66.4022623,6.80701397 65.5974789,7.24436742 L66.8079255,0 L63.1155183,0 L59.4427399,21.6546029 L62.2256765,21.6546029 C62.2256765,21.6546029 62.6313396,20.7619533 63.0588127,20.7619533 L63.0326408,20.7619533 L63.0326408,20.7552248 Z M102.371063,11.519217 C102.935938,8.23794474 101.753844,6.6388011 98.2969836,6.6388011 C95.7234216,6.6388011 94.7070827,7.80731981 93.7452684,8.7986543 L93.8390507,6.97522683 L90.4149046,6.99765521 L90.1510055,9.70027526 L88.1706713,21.6568458 L91.9197841,21.6568458 L93.1280497,13.8943827 C93.5555227,11.2209196 95.3548351,9.17769395 97.0407364,9.17769395 C98.9185642,9.17769395 98.8967544,10.2811704 98.6001405,11.963299 L96.9665829,21.6568458 L100.685162,21.6568458 L102.371063,11.519217 Z M118,6.67244367 L113.629307,6.67244367 L108.60868,12.1449689 L108.536707,12.129269 L110.549756,0.011214191 L106.903149,0.011214191 L103.226009,21.6546029 L106.924959,21.6546029 L107.30227,19.4857784 L108.054709,14.7466612 C110.008872,14.7466612 111.108088,14.9664594 111.965215,18.9609542 L112.556262,21.6546029 L116.333728,21.6546029 C116.333728,21.6546029 115.393723,17.5591803 114.778685,15.9600367 C114.130933,14.277908 113.430837,13.1654603 111.925957,12.8626771 L118,6.67244367 Z M10.5821381,11.9789989 C13.2865592,11.3711897 14.6932944,9.121623 15.0706048,7.65929249 C16.0346,3.63564074 14.2963552,0.493424406 9.30626201,0.549495361 L3.58990093,0.542766847 L0,21.6546029 L3.72512199,21.6546029 L5.19946769,13.1744316 C8.6345187,13.0779896 9.05544877,13.9369966 9.69883927,18.0548476 L10.2898861,21.6546029 L14.1524102,21.6546029 C13.6965844,19.4723213 13.4043324,17.4178815 13.029203,15.7671526 C12.6235398,14.0267102 11.9997782,12.669793 10.3923924,12.0238556 L10.5821381,11.9789989 Z M11.3302159,6.95279845 C11.0096111,8.82781119 9.59633299,10.1443572 7.85590714,10.1443572 L5.65965548,10.1443572 L6.79376756,3.47639923 L8.79154961,3.47191355 C11.1622801,3.47191355 11.6246488,5.07554287 11.3302159,6.95279845 Z M28.1739613,10.9405648 C28.7083025,7.74003466 27.0463921,6.6388011 23.6963995,6.6388011 C19.5132707,6.6388011 17.6921485,8.67978387 17.6921485,8.67978387 L18.9767485,10.9114079 C18.9767485,10.9114079 20.328959,9.28086451 23.0268372,9.28086451 C24.5295357,9.28086451 24.5622505,10.0703436 24.4183055,10.9114079 L24.1238725,12.8133347 C18.7346592,12.6765216 15.9757134,13.8652258 15.3584948,17.5008666 C14.8546873,20.4793557 17.0269481,21.917015 19.4631081,21.917015 C20.7215363,21.917015 21.7400562,21.7196452 22.9701316,20.6206545 C23.2122209,21.3338771 23.6440559,21.7151595 24.1238725,21.7936589 C24.9003031,21.9596289 26.2416088,21.7712305 26.64291,21.4684473 C26.6123762,21.0266082 26.64291,19.9007034 27.0987358,17.2541543 L28.1739613,10.9405648 Z M23.7531051,14.8296462 C23.1555153,19.1829952 22.5928212,19.6181058 20.5514195,19.6181058 C19.1555892,19.6181058 18.6408768,18.6357427 18.8764232,17.3483536 C19.2013899,15.5922112 20.4903519,14.8296462 23.7531051,14.8296462 Z M87.2851915,10.9405648 C87.8217137,7.74003466 86.1576224,6.6388011 82.8054488,6.6388011 C78.624501,6.6388011 76.8011977,8.67978387 76.8011977,8.67978387 L78.0901597,10.9114079 C78.0901597,10.9114079 79.4401893,9.28086451 82.1337055,9.28086451 C83.6407659,9.28086451 83.6712997,10.0703436 83.5295357,10.9114079 L83.2351028,12.8133347 C77.8437084,12.6765216 75.0869437,13.8652258 74.467544,17.5008666 C73.9571936,20.4793557 76.1294544,21.917015 78.5677954,21.917015 C79.8262236,21.917015 80.8469244,21.7196452 82.0813618,20.6206545 C82.3169082,21.3338771 82.7487432,21.7151595 83.2307408,21.7936589 C84.0071714,21.9596289 85.348477,21.7712305 85.7475972,21.4684473 C85.7214254,21.0266082 85.7475972,19.9007034 86.203423,17.2541543 L87.2851915,10.9405648 Z M82.8621544,14.8296462 C82.2689265,19.1829952 81.7040515,19.6181058 79.6604687,19.6181058 C78.2668195,19.6181058 77.7499261,18.6357427 77.9832914,17.3483536 C78.3104392,15.5922112 79.5994012,14.8296462 82.8621544,14.8296462 Z M35.65692,21.917015 C40.1083099,21.917015 42.6535191,18.604343 43.3470723,14.333979 C44.2303711,9.06555204 41.7418675,6.67020084 38.6012494,6.67020084 C37.1269037,6.67020084 36.0625832,6.80701397 35.231628,7.24436742 L36.4398935,0 L32.7322194,0 L29.0572601,21.6546029 L31.8467396,21.6546029 C31.8467396,21.6546029 32.2480408,20.7619533 32.651523,20.7619533 C32.9219651,20.7552248 33.5653556,21.917015 35.65692,21.917015 Z M37.2119621,9.48047711 C39.1159619,9.48047711 39.9229262,10.8037517 39.4736434,14.194923 C39.0156366,17.6601081 37.3188304,19.2143949 35.3079624,19.2143949 C34.0495342,19.2143949 33.3254473,18.3038026 33.5653556,16.8975431 L34.2610898,12.434295 C34.5271699,10.7768376 35.4911652,9.48496279 37.1836093,9.48496279 L37.2119621,9.48496279 L37.2119621,9.48047711 Z M44.9086574,15.5092262 C45.4822564,9.9963299 47.8987875,6.58497298 53.6456824,6.58497298 C57.9095076,6.58497298 59.3227857,9.93353043 58.7491868,13.5332858 C57.8331731,19.2884086 55.6543694,22 50.1844596,22 C46.6447213,22 44.542252,19.0304822 44.9086574,15.5092262 Z M54.8561289,13.8001835 C55.130933,12.2750535 55.421004,9.31450709 52.8692518,9.31450709 C51.1549978,9.31450709 49.554155,10.5099399 48.83443,14.6995616 C48.396052,17.2631257 48.8758687,19.3175655 50.8627458,19.3175655 C52.3152817,19.3153227 54.0884223,18.0840045 54.8561289,13.8001835 Z"/>
</svg>
