<svg xmlns="http://www.w3.org/2000/svg" width="89" height="32" viewBox="0 0 89 32">
  <g fill="#FFF" fill-rule="evenodd">
    <path d="M26.2619086 31.325925L26.2619086.975675 18.3308285.975675 18.3308285 9.257175C18.3308285 11.728425 18.3736075 15.761175 18.5867649 17.104425 17.9472925 15.847425 15.3031075 11.814675 13.9393423 9.950175L7.37276492.975675.0811571823.975675.0811571823 31.325925 8.01223729 31.325925 8.01223729 22.047675C8.01223729 19.576425 7.96945829 15.543675 7.7570384 14.199675 8.52411022 15.543675 11.0819997 19.445925 12.404461 21.310425L19.5242152 31.325925 26.2619086 31.325925zM88.8375627 22.00365C88.8375627 16.32465 85.5111262 13.98315 78.0056235 12.16215 74.1680517 11.25165 73.1037395 10.73115 73.1037395 9.60315 73.1037395 8.5194 73.7004329 7.73865 76.1735019 7.73865 79.2004854 7.73865 81.8439329 8.77965 84.4888555 10.60065L88.4960682 4.0104C85.3400102 1.7559 81.6735544.4989 76.5998169.4989 69.3930296.4989 64.8304273 4.35765 64.8304273 10.08015 64.8304273 16.15065 68.2852008 18.1449 75.490513 19.83615 79.4984633 20.7909 80.5642506 21.4839 80.5642506 22.6104 80.5642506 24.04215 79.6268003 24.5619 76.6846373 24.5619 73.9135903 24.5619 70.1187975 23.0454 67.9437064 21.5274L63.9357561 28.1169C67.0490351 30.19815 71.6964577 31.80315 76.5135213 31.80315 83.6775296 31.80315 88.8375627 28.94115 88.8375627 22.00365M30.4313127 16.086375C30.4313127 7.313625 37.424205.202125 46.0515503.202125 54.6788956.202125 61.6725254 7.313625 61.6725254 16.086375 61.6725254 24.858375 54.6788956 31.970625 46.0515503 31.970625 37.424205 31.970625 30.4313127 24.858375 30.4313127 16.086375M38.3889453 16.086375C38.3889453 11.782875 41.819379 8.293875 46.0515503 8.293875 50.2837215 8.293875 53.7148928 11.782875 53.7148928 16.086375 53.7148928 20.389125 50.2837215 23.878125 46.0515503 23.878125 41.819379 23.878125 38.3889453 20.389125 38.3889453 16.086375"/>
  </g>
</svg>
