<svg xmlns="http://www.w3.org/2000/svg" width="74" height="80"><path fill="#FFF" d="M29.91 38.958c.067-.011.107.066.183.057.05-.006.093.067.158.047a.237.237 0 0 0 .185.053c.06-.005.12-.001.186-.001l.059-.049h.098l.069.05c.076-.007.095-.077.143-.103h.103l.047.048h.206l.046.045c.165.012.165.012.308.105l.281-.142h.4c-.01-.003 0-.003.005.002.053.054.124.073.193.095.015.005.034 0 .054 0l.056-.05h.152c.107.099.107.098.296.155.022.007.037.033.06.042.048.02.091.008.155-.038l.098.055.064-.06h.152c.02.02.04.036.056.05.102.014.172-.047.264-.096h.253l.044.044h.46l.058.053h.204l.065-.06.221.116.086-.052h.124l.205-.116.077.06c.115.017.19-.08.293-.103l.14.155h.156c.085-.04.147-.08.215-.1a.59.59 0 0 0 .112-.042c.05-.025.118-.04.15.036h.2l.176.101.053-.048h.1l.043-.044h.289l.193-.107h.192l.053.049h.15l.057.051h.1l.055-.049c.089-.036.138.055.212.058.065.071.125.06.196 0 .027-.022.08-.016.1-.062l.059.054h.084l.183-.102c.123-.055.214.107.381.017l.052-.07h.121l.054.05h.102l.093-.093c.05-.025.123.018.159-.059l.057.048h.308l.111-.107c.02.009.047.013.064.027.059.05.114.104.146.133l.031.102h.163l.053-.05h.36l.038-.038c.054-.027.113-.01.17-.01l.046.045h.292l.119.073.084-.12h.124l.054.05.036-.037c.056-.032.116-.002.166-.017l.05.048h.165l.042-.041h.213c.014.013.042.034.06.061.017.026.022.06.032.089h.16l.106-.1c.058-.022.074.037.113.049.047-.008.109.028.129-.046h.226l.044.044h.253l.059.053h.1c.024-.06.052-.12.112-.154h.077c.008-.002.019 0 .023-.006l.149-.147h.253l.059-.053h.157c.015-.017.031-.037.05-.054.024-.022.041-.052.083-.053.02 0 .041-.023.076-.044h.198l.054.043h.163c.021-.028.053-.068.076-.1h.121l.035-.036c.056-.03.116-.007.173-.018l.046-.046h.271l.022-.088.127-.12h.149l.052.05.054-.052h.08c.013-.007.03-.011.041-.021.073-.068.13-.157.234-.184h.102a.617.617 0 0 1 .224-.26c.073.003.088-.087.14-.095.059-.01.087-.045.122-.079.044-.041.086-.085.128-.127l.07-.019.032-.087.06-.006.104-.207h.086l.14-.072.016-.077h.187c.085-.022.1-.12.183-.108l.166-.16.147-.148h.1l.058-.054h.075c.009 0 .021.004.025 0a.17.17 0 0 1 .107-.058c.027-.004.049-.045.074-.07v-.152l.052-.057v-.181l.002-.026c.063-.019.025-.117.097-.127.058-.008.081-.05.108-.092 0-.04-.012-.058-.056-.066-.071-.012-.096-.09-.15-.121v-.11l.149-.085v-.176l.119-.072h.058l.092.062c.06-.058.117-.1.152-.173.032-.066.094-.117.147-.18-.03-.074.06-.124.055-.2.072-.098.108-.215.168-.318.036-.061.052-.14.122-.183a.42.42 0 0 0 .109-.11c.023-.03.032-.07.06-.14v-.169c.04-.044.077-.087.12-.137-.02-.022-.032-.042-.05-.054-.012-.008-.034-.002-.047-.01-.028-.017-.053-.039-.065-.048.023-.057.033-.097.055-.13.024-.034.072-.056.086-.093.016-.039.042-.072.053-.107a.215.215 0 0 1 .059-.104l-.047-.046v-.207l-.05-.05v-.212c.014-.038.09-.072.045-.145l-.055-.08.079-.158.287-.286-.05-.054c-.01-.059.004-.135-.005-.206l.1-.1v-.534l-.096-.065v-.18l.05-.053v-.103l.036-.035c.03-.056.006-.117.017-.172l.05-.056v-.087l-.059-.086.056-.09v-.235l.056-.078c-.006-.077-.077-.096-.103-.144v-.101l.05-.058v-.132c-.002-.008-.002-.02-.007-.023-.09-.065-.108-.189-.2-.251v-.122l-.102-.08v-.117l.1-.047v-.367l-.115-.091.068-.138c-.062-.142-.24-.152-.309-.287.017-.047-.036-.066-.051-.097v-.101l.049-.058v-.14l-.215-.193c.028-.079-.026-.097-.043-.133v-.146c-.076-.085-.172-.17-.265-.272l.039-.083.008.004c.002-.006.008-.016.006-.018l-.144-.146c-.033-.092.031-.16.07-.226.029-.05.026-.094.026-.142-.038-.031-.061-.085-.13-.074-.08-.084-.163-.172-.25-.254a.516.516 0 0 1-.133-.232l.05-.056c-.028-.048-.075-.019-.12-.03-.059-.029-.089-.116-.182-.109l-.008-.176c-.04-.04-.085-.013-.138-.025l-.094-.144a4.623 4.623 0 0 1-.034-.009l-.145-.127v-.108c-.055-.045-.117-.013-.176-.023-.017-.016-.04-.03-.053-.051-.022-.033-.03-.085-.06-.098-.028-.014-.061-.017-.084-.044-.01-.014-.024-.025-.037-.038v-.053l-.13-.125c-.068.015-.12-.033-.181-.053-.062-.019-.081-.084-.137-.105h-.08l-.203-.225c-.102-.012-.188-.038-.248-.111v-.052l-.13-.13c-.031 0-.08.015-.097-.002-.054-.053-.147-.047-.185-.13 0-.028.014-.077-.003-.093-.057-.052-.042-.15-.13-.185h-.098c-.033.03-.07.066-.105.1h-.123l-.086-.12-.118.071-.154-.077c-.05-.046-.123-.117-.201-.182-.03-.025-.073-.055-.106-.05-.09.015-.146-.092-.238-.054l-.056-.052h-.72a5.823 5.823 0 0 1-.045-.046h-.258l-.051-.052h-.16l-.06.046h-.25l-.049.049h-.252l-.06.053h-.254c-.038-.058-.12-.046-.166-.1-.008-.009-.057.017-.14.044h-.218l-.042-.042h-.167l-.058.098h-.24c-.076-.063-.076-.063-.155-.004h-.203l-.103.103h-.268L42.167 23h-.304l-.058-.051-.054.048h-.358l-.054-.047-.067.057a32.548 32.548 0 0 1-.098-.057h-.123l-.188-.106h-.087l-.057-.053h-.1l-.15-.15h-.215l-.12-.167v-.11l-.053-.064v-.152l.047-.053a7.024 7.024 0 0 0-.05-.054v-.089c-.06-.103-.102-.207-.203-.254v-.12l.099-.105-.097-.096v-.24l-.056-.09c.011-.064.084-.11.051-.186.057-.04.043-.126.104-.165v-.204l.047-.046v-.203c.05-.071.05-.071.057-.174l.09-.066h.068c.008-.002.017-.001.024-.005.007-.004.013-.011.019-.018.048-.048.1-.094.144-.147.04-.046.115-.03.145-.09h.148c.041-.036.076-.088.119-.097.046-.01.065-.053.106-.056.05-.004.104.008.136-.05h.564l.059-.053h.1l.056.05h.077c.014-.006.03-.011.043-.02.186-.109.186-.109.392.019h.198l.176-.103h.194l.038-.037c.048-.025.1-.008.134-.012.057-.024.103-.038.144-.063.042-.025.063-.08.117-.094.067.004.084.076.135.101l.15-.149h.269c.022.029.053.07.078.1h.274a.499.499 0 0 1 .26-.105c.024-.025.054-.07.096-.093.034-.019.083-.012.1-.059h.106l.057-.053h.152l.057-.052c.091.037.149-.07.238-.054.023.004.052-.04.081-.046.042-.009.086-.002.129-.002h.206c.089-.034.085-.135.14-.193-.008-.065.052-.081.085-.12h.102c.053-.091.169-.1.233-.182.059-.074.132-.136.199-.202v-.052c.036-.076.13-.07.18-.128.045-.051.096-.098.145-.147.127.002.218-.095.333-.127.005-.064.04-.12.093-.136.047-.015.071-.02.076-.075.002-.027.04-.051.064-.078l.12-.013c.041-.09.07-.186.147-.252.026-.105.118-.159.182-.236v-.256c.064-.019.026-.11.097-.13.062-.018.113-.07.185-.05l.128-.128v-.051c.054-.04.08-.116.153-.13.077-.013.094-.093.149-.117.025-.06-.034-.083-.038-.116a.18.18 0 0 0-.05-.1l.096-.172v-.136l.07-.078h.208l.082-.082v-.102l-.052-.056c-.002-.102.08-.115.15-.145v-.196c.063-.074.072-.177.16-.22v-.314l.097-.098v-.206l.16-.119v-.09l.052-.057v-.1l.051-.057v-.131c-.026-.05-.053-.099-.077-.15-.025-.052-.087-.04-.127-.073v-.104c.034-.083.144-.072.2-.158l.008-.16.095-.095v-.157l-.046-.053v-.1l.063-.082-.124-.144.054-.102v-.146c.011-.073.075-.086.053-.148l-.098-.05.05-.056v-.154l.037-.034c.03-.056.006-.117.017-.174.03-.03.069-.055.04-.112l-.085-.032c0-.005-.002-.014 0-.017l.146-.146c.019-.054-.03-.074-.05-.106v-.126l.118-.081-.074-.13.056-.082v-.095a18.06 18.06 0 0 0-.05-.053v-.096l.054-.073c-.004-.024-.002-.035-.007-.04-.047-.05-.096-.098-.146-.147.018-.034.054-.056.05-.105-.001-.028.056-.04.046-.1l-.048-.064v-.087l.046-.063v-.117l-.072-.015-.181-.177V9.18l-.1-.102v-.17l-.084-.016-.124-.124v-.102l-.053-.057v-.204l-.045-.046.041-.056v-.11c-.054-.025-.103-.052-.155-.07-.027-.009-.042-.018-.046-.047-.013-.077-.058-.12-.13-.11l-.176-.177v-.156l.046-.053-.049-.054v-.101l-.149-.087a94.12 94.12 0 0 0-.01-.185l-.08-.019a161.66 161.66 0 0 1-.17-.177l.047-.051-.075-.075h-.153c-.058-.06-.121-.11-.15-.196-.017-.05-.096-.072-.088-.144-.047-.03-.11-.038-.146-.099v-.18c-.03-.057-.05-.1-.073-.146l-.08-.02-.238-.25c-.103.015-.171-.051-.28-.097h-.189l-.075-.107h-.131c-.074-.076-.139-.178-.232-.23-.106-.06-.179-.15-.274-.229l-.114-.013c-.037-.056-.011-.117-.019-.177-.068-.05-.148-.005-.246-.039-.021-.021-.062-.064-.105-.104-.042-.04-.077-.08-.14-.098-.05-.014-.087-.079-.126-.118a8.211 8.211 0 0 0-.004-.056l-.142-.073h-.291l-.055.05c-.064-.093-.188-.11-.252-.204h-.226l-.121-.153c-.109-.015-.12.087-.196.102l-.11-.06-.078.058h-.205c-.038-.08-.127-.096-.216-.155h-.352c-.023-.063-.038-.121-.096-.154h-.254l-.108-.102h-.104l-.044.044h-.206c-.094-.07-.233-.089-.314-.202l-.204.205h-.104l-.054-.049h-.1l-.106.1c-.081.036-.131-.028-.19-.052-.05-.02-.09-.069-.13-.101-.078.004-.097.074-.155.11l-.157-.073a8.019 8.019 0 0 1-.019-.072l-.23-.164c-.05.053-.123.1-.137.193l-.12.013-.043.042-.055-.047h-.097c-.038-.035-.071-.09-.114-.1-.046-.009-.071-.054-.106-.053-.063.001-.107-.035-.16-.05-.063-.019-.134-.005-.192-.005l-.055.055h-.206l-.047.047h-.159l-.135-.146-.041.017c-.074.028-.136.093-.225.079l-.134-.116c-.027.02-.047.034-.065.05-.02.017-.037.036-.055.054-.143.01-.248.107-.4.166h-.073a21.38 21.38 0 0 1-.056-.052h-.462l-.037-.037c-.006-.004-.013-.013-.02-.013h-.35l-.072-.061-.098.057h-.141L36.6 3.63H36.5l-.054.049h-.204l-.104-.1h-.105l-.097.097h-.36a13.997 13.997 0 0 1-.081-.059l-.09.066c-.04.015-.061-.032-.093-.054h-.102l-.047.047h-.206l-.051.051-.056-.044h-.153l-.053.046h-.154l-.105-.1h-.103l-.095.096c-.075-.012-.134.04-.217.065l-.176.194-.05.1v.394l-.04.04c-.028.053-.008.113-.01.17l.036.037c.003.006.01.016.007.018-.01.013-.023.025-.04.042v.173l.062.042c.043.084.061.12.087.168l-.103.08v.11l.306.307v.11l-.044.043v.158l.043.052-.046.054v.088l-.086.152-.118.118-.005.113.104.074v.122l.052.056v.09l-.103.18v.134a28.74 28.74 0 0 1-.049.063c-.022.04.014.067.047.098v.099c.018.02.035.038.053.06v.098l.036.039c.005.014.015.03.016.044.002.06 0 .12 0 .178-.1.151-.1.151-.095.267l.04.04v.2l.053.063v.1c-.013.036-.052.026-.078.032-.01.008-.02.015-.02.02-.002.052-.001.104-.001.157l.049.053v.361a5.573 5.573 0 0 1-.038.038c-.029.056-.001.115-.015.165l.05.05-.05.064v.2l-.047.048v.257c.04.03.038.09.069.122.035.038.03.076.033.117 0 .015.012.03.02.043l.077.15v.558l-.043.044v.41l.1.175v.088a8.216 8.216 0 0 1-.05.054v.31l.046.047v.46l.056.068c-.024.106-.12.182-.104.299l-.105.11v.253a6.76 6.76 0 0 1-.046.056l.097.097v.217l-.148.123-.056.017c.002.03-.003.05.005.062.03.04.073.072.097.115.043.076.076.158.111.234l-.058.063v.154l-.046.046v.206l-.051.051v.47l.042.053v.13c.014.052.074.068.053.126l-.049.055c-.037.08.059.131.053.207.067.045.049.137.112.173l-.07.109.057.086v.094l-.049.054v.293l-.11.204.052.069-.042.053v.112l.1.077v.282l-.088.03c-.005.015-.014.03-.014.045-.002.043-.001.085-.001.132l.1.036v.264l.046.046-.093.18v.29c.057.038.047.119.099.166.017.016.002.065.002.096l-.048.049v.31l-.103.102c.024.079-.048.133-.058.204l.055.06v.101l.15.15v.116c-.06.023-.12.033-.145.098-.024.049.02.071.047.103v.1l.049.054v.466l-.042.042.1.189-.108.196v.192l-.039.038c-.024.055-.011.114-.008.172l.042.042v.239L34 21.9v.287l.056.074c-.008.069-.066.087-.09.13-.02.033-.032.072-.061.143v.229l.043.054v.144l.053.062v.123l-.166.13.022.018-.056.105v.369l-.117.223.06.064-.06.064.108.212v.257c-.027.004-.055.001-.073.013-.029.018-.05.047-.078.075l.14.127c.008.03.015.047.015.062v.378l-.047.048v.323l.098.056v.192l-.05.055v.308c-.044.05-.11.084-.11.162-.072.065-.065.127-.001.197.018.019.007.065.01.124l.144.113c.016.07-.009.091-.032.117-.04.043-.094.073-.12.145l.056.078v.146l.051.056v.256l-.048.055.043.042-.052.085.056.085v.245l.104.11v.206l-.093.093c.013.05.062.071.092.11a7.512 7.512 0 0 0-.05.055v.103l-.096.095v.17c.034.04.081.004.135.032l.042.039h.183l.156.158c.067-.03.11-.109.176-.158h.101l.044.044c.101.02.212-.004.32.012l.042.041h.519l.054-.043h.152c.013.01.031.027.05.044l.068-.049c.069.008.089.063.137.099h.165l.09-.09c.059-.01.118-.022.159.043h.207l.054-.05h.1c.02.017.038.035.054.05h.102l.06-.053h.355l.044-.044h.312c.01.008.03.023.049.04l.18-.1c.13.054.24.142.389.174l.083-.118h.536l.054.05h.188l.142.074c.076.04.086.037.158.005.072-.032.136-.093.25-.074l.12.152h.17l.069.059.098-.057h.128c.072-.063.176-.07.217-.16h.468c.032-.03.062-.061.097-.097h.165l.049.049h.309l.05.05.405-.001c.007 0 .014-.01.02-.014l.019-.07c.006-.006.012-.017.018-.017.068-.002.137-.001.207-.001l.054.05h.078c.014-.006.031-.01.042-.02.074-.067.129-.157.234-.184h.207c.036.058.123.041.162.103h.254l.102.101h.206l.049.05h.259l.053-.048h.16l.068.087v.142c.028.025.056.07.09.075.05.007.073.038.103.066.031.03.056.077.092.087.043.011.078.025.104.058h.104l.075.076v.168c.043.039.11.076.14.133.03.062.061.116.116.156v.323l.107.071v.131l-.053.057v.244c-.035.059-.066.106-.092.156-.027.05.015.123-.065.162v.212l-.046.047v.198c-.014.036-.059.044-.054.088.005.052-.076.071-.054.132-.045.048-.106.085-.11.16 0 .007-.011.015-.019.017a.412.412 0 0 0-.192.094c-.058.052-.11.11-.165.164h-.102l-.057.053h-.152l-.093.094c-.05.023-.112-.008-.16.05-.032.038-.1.046-.15.067l-.06-.057h-.617c-.028-.062-.101-.046-.146-.088-.037-.036-.102-.067-.15-.062-.07.008-.098-.067-.164-.059-.059.083-.154.114-.246.161l-.086-.062-.097.054h-.225c-.057.033-.097.091-.167.056l-.085-.063-.081.062h-.15l-.098-.097h-.196l-.064-.05c-.053-.01-.112-.025-.154.042h-.151l-.06.053h-.203a21.396 21.396 0 0 1-.056-.052h-.152l-.097-.097h-.3l-.067-.053h-.25l-.175.099h-.087l-.056.052c-.054.02-.072-.034-.108-.052h-.128l-.28-.147-.05.044h-.152l-.054-.051c-.055-.02-.072.035-.121.057l-.082-.044c-.07.035-.156.062-.203.141h-.16a17.616 17.616 0 0 0-.043-.045h-.207l-.046-.045c-.058-.02-.114-.03-.16.034h-.19l-.19.107h-.14a13.73 13.73 0 0 1-.054-.05h-.41c-.02-.018-.038-.036-.055-.05-.056-.021-.073.036-.11.05-.05-.003-.106.017-.14-.048h-.25l-.06-.049-.172.096h-.09l-.092-.091c-.1-.008-.1-.008-.164.036h-.19l-.094.065-.085-.06h-.092l-.04-.036c-.013-.005-.028-.015-.043-.016-.06-.002-.12 0-.177 0-.02.018-.04.035-.055.05-.038.001-.08-.009-.103.008-.035.026-.064.048-.112.047-.029 0-.059.02-.1.037l-.044-.037h-.137l-.182-.105h-.147c-.024.038-.064.045-.103.06-.037.014-.062.057-.096.09h-.153c-.042-.03-.095-.06-.09-.131-.04-.026-.097-.023-.125-.072h-.099c-.02-.019-.04-.035-.066-.06l-.113.06c-.024 0-.082-.004-.139-.008-.032-.058-.087-.04-.128-.042l-.252.253h-.234l-.053-.053-.08.116c-.068-.022-.094.017-.119.043h-.104l-.058-.05c-.074.003-.126.097-.217.034l-.032-.031h-.4c-.043-.018-.06-.074-.11-.056l-.288-.297c.032-.07-.036-.118-.058-.177-.019-.051-.069-.09-.106-.136.032-.089.118-.126.167-.207l-.1-.193.041-.048v-.153l-.05-.054v-.566l.05-.054v-.095l-.058-.086.06-.09c.003-.073-.069-.092-.102-.14v-.103l.1-.105v-.105l-.044-.044v-.259l.05-.076-.102-.195.082-.07c.03-.077.01-.145.015-.212.003-.06 0-.12 0-.175l.046-.046v-.27c-.014-.013-.03-.024-.037-.038-.007-.014-.006-.032-.011-.064l.105-.078v-.123c-.035-.035-.07-.072-.1-.105-.003-.04.008-.087-.01-.105-.06-.059-.046-.17-.145-.187v-.12l.11-.115-.107-.213v-.144c.061-.028.134-.036.152-.132l-.054-.073v-.268l-.096-.077c-.039-.113.086-.18.035-.279-.09-.014-.136-.09-.197-.145v-.155c.057-.03.124-.046.16-.124-.022-.08-.107-.118-.158-.189v-.15l.1-.106v-.156l-.044-.044v-.154c.02-.04.042-.093.075-.137.036-.047.083-.086.125-.128l-.046-.047-.01-.112-.09-.092c-.03-.049.03-.129-.058-.15v-.166l.049-.054v-.41l.051-.055v-.153a7.034 7.034 0 0 0-.05-.056c-.014-.073.1-.108.025-.23a6.417 6.417 0 0 0-.057-.037c-.046-.108.005-.16.032-.219.022-.05.04-.106.073-.15.04-.053.093-.096.133-.136 0-.088-.07-.107-.103-.154v-.098l.062-.082-.056-.08v-.302l.093-.175v-.133l.053-.06v-.15l.053-.058v-.05l-.075-.076h-.1l-.078-.146v-.179l-.053-.065v-.095l.196-.188c-.029-.104-.111-.173-.093-.293l.1-.08v-.403-.025l.038-.037c.042-.071.006-.126-.038-.18.012-.083-.093-.093-.103-.164l.206-.43c.006-.015 0-.035 0-.073l-.153-.108v-.195l.05-.054v-.103l-.098-.097v-.314l.043-.053v-.102l-.046-.053v-.205c.023-.029.056-.052.053-.104-.001-.026.055-.039.046-.096l-.05-.067v-.138l.044-.057c.012-.053.027-.112-.04-.154v-.215l-.12-.095.102-.213-.01-.023c-.026-.075-.093-.135-.077-.23l.047-.054c-.024-.03-.053-.055-.052-.105 0-.025-.055-.04-.045-.099.053-.084.178-.134.175-.29l-.023-.026v-.24l-.098-.182v-.452c.006-.008.022-.027.038-.05.012-.161.012-.161.11-.313v-.1l.052-.056v-.155l-.203-.204v-.132l.213-.174c-.025-.11-.118-.142-.164-.225v-.298l-.031-.029c-.041-.061-.005-.122-.024-.173l.102-.102v-.314a5.185 5.185 0 0 1-.043-.053v-.153l.046-.054v-.41c-.058-.036-.042-.123-.103-.162v-.359l-.044-.044v-.156l.051-.083c-.044-.087-.13-.125-.17-.208l.063-.082v-.15l.038-.038c.018-.058.022-.107-.028-.16-.035-.039-.045-.101-.068-.156.073-.05.102-.129.145-.198.024-.04.023-.041-.035-.118v-.29l-.064-.108.178-.158-.024-.02c.02-.033.038-.067.057-.1l-.09-.09c-.004-.115-.004-.115.095-.266v-.36l.051-.055v-.086l-.097-.183v-.252c.023-.023.07-.052.09-.095.018-.036.017-.081.06-.1v-.133l-.155-.136c.003-.057-.013-.112.048-.145v-.17a59.681 59.681 0 0 0-.1-.076V6.96l.06-.064-.056-.118V6.28a23.752 23.752 0 0 1-.102-.037v-.467l.055-.082-.058-.087V5.52c-.021-.028-.04-.054-.065-.085l.062-.08v-.1l-.047-.055.04-.041-.019-.035c-.047-.089-.085-.176-.074-.2.028-.066.061-.129.093-.193-.05-.028-.043-.08-.043-.131.034-.08.125-.112.163-.202-.04-.064-.101-.11-.157-.172v-.59l-.13-.257a11.96 11.96 0 0 1-.063-.016c-.04-.053-.01-.115-.019-.172l.051-.055v-.122l-.115-.086.113-.221v-.132l.053-.059v-.358l.107-.112V1.95l.049-.058v-.137c.009-.037.065-.055.051-.105l.196-.212c.022-.051.038-.115.072-.167.033-.05.089-.082.124-.13.033-.046.035-.112.098-.145h.256a.382.382 0 0 1 .127-.178v-.16c.02-.008.04-.016.06-.026.022-.01.043-.024.079-.046h.205l.07-.106h.155l.311-.158c.05-.011.144.01.235-.004l.046-.046h.258l.049-.05h.306l.174.1h.088l.068.063.078-.112c.087-.01.127.045.134.082.01.06.053.083.082.122h.102c.02-.017.038-.035.057-.053h.152l.097-.097h.17L34.2.41c.083.033.106-.01.136-.037h.155l.097.097h.206l.173-.094h.398l.053.047h.255L35.71.39c.014-.006.029-.016.044-.016.043-.003.085 0 .126 0l.056.05h.09l.08-.058c.068-.041.135.09.248.052l.128-.155c.073.026.091-.026.122-.042h.155l.044.044h.147l.201.066.07-.059h.204l.054.049h.101l.054-.05h.204l.055.048.15-.15h.104c.058.09.185.101.249.195.053-.01.066-.07.139-.092h.127l.053.05h.257l.034-.035c.048-.039.102.003.137-.02.063.009.085.077.144.06.065.072.124.067.196.003.027-.023.083-.012.099-.059h.16a.515.515 0 0 0 .189.1c.083.026.09.106.126.173.097-.04.139-.12.205-.17h.1l.06.054c.07-.013.126-.079.203-.06l.096-.096h.372l.083.106c.066-.024.085.028.124.05h.301l.044.043h.238l.18.1.165-.094h.145l.037.038c.015.004.03.012.046.013h.225l.046-.046h.177c.06-.014.08-.053.126-.062.044-.008.08-.063.134-.046.038.012.071.045.108.049.075.009.088.094.162.11.058.013.122.041.168.091.022.024.039.059.083.06.064-.004.083-.075.131-.102h.103l.044.044h.13c.076.038.13.094.214.033.068-.048.078-.037.156.003l.106.056c.007.004.012.012.018.018h.257l.096.095.117.014.04.041h.234l.225.119.02-.025.136.172c.107-.019.167.052.242.077.036.077.134.064.177.127h.155l.056.05h.136c.042.008.059.053.092.078.039.029.059.078.122.082.033.003.063.053.093.082.036.035.067.068.124.078.034.006.061.056.095.09h.2l.062.053h.145c.062.04.08.105.118.157.034.047.06.096.09.144.034.055.037.132.11.165h.104c.024.03.067.059.072.094.008.05.04.092.07.098.123.023.16.167.283.19.031.006.064.048.067.1.001.026.038.051.063.082h.138c.095.054.197.088.246.178.031.058.042.121.12.14.055.012.094.063.16.053.025-.004.053.043.082.046.076.007.154.002.231.002.074.024.075.103.114.154h.053l.18.192v.04c.062.082.17.1.235.182.065.08.144.148.217.22l.218.218v.087l.071.14c.06.038.102.124.193.166.093.042.163.133.275.151l.181.192v.153l.14.026c.033.036.006.082.017.121l.045.045.01.192.12.076-.067.101c.05.053.122.005.167.024l.085.076v.157l.147.148c.044.113.044.113.249.197.005.007.014.013.014.02.002.051.001.102.001.149l-.06.068c.033.062.066.126.108.21v.147l.16.127v.227l.152.153c0 .028.014.077-.002.092-.052.047-.035.132-.103.164l.05.05.008.111c.06.058.12.114.148.197v.306a.334.334 0 0 0 .142.096c.032.036.01.08.015.122.003.034 0 .068 0 .102l.15.15v.216l-.044.044v.175l.164.132c-.04.079-.052.153-.108.205.013.078-.046.136-.062.207l.107.114v.462l.047.047v.202l.064.078-.057.096v.205l.1.076v.122l-.05.046c-.008.063.003.139-.002.194l.094.176-.035.044c-.006.038-.004.083-.022.118-.014.029-.045.049-.035.092l.102.107v.135l-.104.188c-.006.065.106.1.06.19l-.11.087v.12l.049.053v.104l-.044.044v.248a15.06 15.06 0 0 0-.057.073c-.039.068.106.11.05.195l.051.058v.108l-.086.03c-.036.035-.001.082-.028.136l.168.168a.25.25 0 0 1-.144.147c-.052.02-.103.05-.11.09-.01.065-.094.107-.057.184.003.005-.004.015-.007.023l-.093.093v.306l-.053.059v.208l-.254.252c-.004.005-.003.016-.005.031.025.08.113.115.155.187 0 .009.004.02 0 .026-.03.04-.061.079-.1.127-.01.042.015.11-.052.146v.102l-.053.057v.101l-.053.057v.096c-.065.085-.164.135-.204.232-.037.092-.132.132-.178.21-.04.069-.095.136-.08.23a.39.39 0 0 0-.137.197c-.028.073-.041.154-.093.245-.012.013-.064-.009-.092.035-.02.033-.078.012-.106.055-.022.035-.059.062-.089.092s-.062.06-.09.092c-.028.03-.062.051-.067.102-.003.035-.037.068-.076.13l-.216.217h-.05c-.009.046-.002.108-.03.137-.044.046-.033.092-.036.143l.044.05c-.022.044-.038.09-.066.128-.033.047-.078.08-.095.143-.01.043-.067.074-.107.114l-.118.014c-.04.036-.003.083-.022.117l.051.057-.129.129c-.065-.023-.088.08-.155.058-.004-.001-.014.01-.018.017-.003.007 0 .018-.003.024-.038.08-.075.159-.118.246l-.13.068h-.188c-.027.051-.085.045-.126.072-.033.021-.07.037-.106.056v.11l.084.03c.034.036.009.08.017.12-.05.052-.114.016-.174.026l-.056-.048c-.038.056-.122.04-.16.1h-.168c-.166.054-.243.17-.344.256-.1.084-.1.221-.181.291.004.072.054.086.077.122h.151c.04.061.126.046.165.105.083-.011.098.093.163.1.072.009.102.063.136.106.044.058.123.046.165.106.04.056.095.1.146.15h.099l.06.055c.03 0 .076-.015.097.002.064.052.156.064.198.147h.132l.415.417h.178c.06.033.082.117.166.107.03.038.086.06.073.132.077.075.151.16.237.229.107.086.18.2.249.312.054.087.12.158.187.231.034.037.084.07.096.114.013.047.041.072.068.102.035.037.073.073.113.114h.089l.195.206v.125l.053.06v.099l.053.057v.055c.081.053.12.164.234.178l.218.22.189.186c.058.117.085.203.157.264h.052l.128.129v.102l.31.306c-.024.095.032.165.075.23.046.07.118.124.18.186v.15c.08.095.092.232.199.304.008.076.011.15.075.198l-.066.075c0 .029-.013.073.003.095.068.091.084.214.177.29h.051l.129.25v.188l-.044.047c.05.1.099.198.197.248v.118a8.81 8.81 0 0 1-.048.054v.158l.082.07h.082c.062.031.044.107.098.142.04.027.081.061.098.113-.021.09-.113.122-.155.194 0 .009-.004.02 0 .026.03.04.06.08.1.13.012.038-.017.107.052.144v.1l.053.06v.1l-.05.055v.154c.102.155.102.155.094.317l-.04.04v.26l.045.053-.048.053v.108c.079.037.096.126.15.21v.227l.099.178-.097.175c.015.063.066.086.097.125.003.016.008.032.008.048l-.009.332c-.079.042-.005.156-.091.194.056.041.047.12.098.166.017.016.003.065.003.097-.05.033-.113.041-.15.1v.127c-.014.058-.076.072-.054.131l.048.055v.106l-.074.067c-.018.025-.027.031-.027.038l-.001.226c.025.056.037.086.052.114.011.022.027.041.047.073v.145c-.07.109-.184.178-.306.252.018.022.03.04.05.063v.154c-.074.056-.11.147-.157.244l.115.133-.108.209v.132l-.053.058v.102l.051.055v.089c-.004.038-.05.055-.075.087-.022.026-.048.049-.076.076v.15l-.053.06v.15l-.053.058v.257c-.06.056-.106.13-.2.144-.005.06-.002.12-.017.174-.013.044-.047.082-.072.121l-.05.005c-.03.03-.06.062-.092.09-.024.022-.05.054-.078.057-.052.006-.066.05-.122.085l.115.07v.174l-.083.146-.118.118v.148l-.053.063v.209l-.144.122-.03.004c-.069.107-.118.224-.181.333-.027.046.006.118-.057.159-.014.01-.007.048-.02.067-.02.028-.048.05-.081.083v.224c-.081.022-.158.008-.233.013-.024.04-.04.093-.075.119-.053.036-.035.125-.093.134-.06.01-.081.055-.12.086v.15l-.127.13h-.057c-.029.065-.05.136-.089.194-.036.055-.091.096-.138.142l.095.095-.064.136h-.158l-.05.05h-.207c-.025.028-.073.057-.075.09-.004.064-.057.08-.08.12h-.105l-.038.038c-.056.03-.115.002-.162.015l-.06-.05c-.067.067.009.091.029.131v.088l-.052.072c-.004.067.093.107.03.225l-.067.06-.108-.059c-.072-.001-.169-.026-.26.045-.027.02-.084.003-.142.003l-.118.147a.541.541 0 0 1-.129.263l-.097.005-.12.132c-.163.046-.21.16-.308.225h-.147a20.754 20.754 0 0 1-.054-.048h-.1c-.028.046-.084.044-.128.072v.11l-.15.123h-.183c-.022.022-.045.046-.07.069-.027.025.003.075-.06.094-.102.033-.099.044-.185.049a1.354 1.354 0 0 1-.036.036c-.006.006-.014.01-.02.014-.075.01-.095-.063-.134-.09-.088-.046-.144.032-.221.043-.098.077-.167.202-.316.239l-.152-.082-.051.046h-.338l-.43.22-.097.142h-.162l-.097.097h-.344c-.059.031-.097.094-.17.042l-.093.118h-.221l-.055-.051c-.142-.02-.23.128-.37.106-.01.088-.068.14-.127.183-.052.038-.128.042-.146.105-.078.044-.17-.021-.222.062l-.152.012-.063-.053h-.195l-.076-.056c-.075.01-.095.078-.147.105-.047.01-.108-.03-.132.047l-.307-.156-.076.058h-.096c-.02.019-.04.035-.056.051h-.235c-.063-.034-.123-.077-.19-.1-.045-.016-.103-.011-.135.046h-.101l-.11.105c-.035.001-.073.006-.075-.043-.002-.061-.05-.081-.089-.111-.078-.011-.083.08-.143.095-.095.005-.095.005-.293-.098-.024.017-.056.056-.075.05-.077-.022-.121.05-.186.056-.034.003-.068 0-.103 0l-.155-.17c-.06.075-.146.074-.194.14a.364.364 0 0 1-.143.134c-.073-.006-.09-.077-.143-.1l-.036.036c-.108.008-.108.008-.278-.095l-.075.106h-.431l-.049-.048c-.062-.01-.138.003-.21-.005-.042.07-.102.056-.168.045l-.016-.074c-.047-.052-.083-.012-.121.028h-.207c-.03-.015-.049-.068-.102-.049l-.055.051h-.256l-.056-.05c-.052.002-.108-.018-.143.046-.047-.085-.163-.005-.21-.096h-.252l-.088-.067-.134.116h-.077c-.052-.016-.076-.064-.12-.1h-.155l-.054.047h-.1l-.052-.048c-.053-.019-.074.029-.109.048-.026.016-.06.02-.086.047h-.225c-.083-.109-.162-.006-.256.008l-.082-.105h-.17l-.054.05h-.361c-.032-.055-.084-.051-.164-.05-.015.027-.042.07-.06.1h-.143l-.078-.1h-.31l-.177.097-.04-.04h-.215l-.044.044h-.253l-.06.053h-.124l-.122-.152c-.096-.01-.113.064-.164.099h-.155l-.111-.106c-.02.007-.048.01-.062.026-.015.016-.014.045-.02.068-.04.041-.104-.016-.14.037-.03.044-.076.024-.145.034l-.062.096h-.18l-.054-.049h-.41l-.037-.036c-.006-.005-.012-.015-.019-.015l-.306-.001-.04-.04c-.055-.023-.113-.011-.17-.007l-.101.1h-.31c-.02.022-.033.034-.047.048h-.511l-.06.056c-.017-.018-.033-.038-.052-.056-.023-.022-.04-.051-.082-.052-.02 0-.041-.023-.07-.04-.012.008-.029.021-.051.04h-.112l-.075-.097c-.093-.015-.116.053-.17.093h-.473c-.031-.057-.086-.043-.158-.046l-.07-.1h-.126l-.053.049-.036-.036c-.015-.005-.03-.014-.045-.015h-.378c-.025.02-.047.05-.064.049-.108-.012-.196.109-.312.042l-.038-.037h-.14l-.184-.106h-.606l-.097.098h-.365l-.053-.042h-.354l-.174.098h-.449l-.054-.05h-.084c-.044.022-.073.035-.101.051-.028.016-.055.034-.082.052h-.13l-.086-.056-.202.106h-.137l-.054-.05h-.36l-.097.098h-.257l-.174-.096h-.649c-.034-.026-.057-.06-.109-.057-.026.001-.039-.056-.096-.047-.035.029-.076.07-.124.1-.04.025-.087.037-.127.053-.087-.028-.08-.124-.135-.173a.557.557 0 0 1-.133-.177c-.032-.066-.104-.112-.159-.166l-.056.053h-.123l-.08.116c-.036-.02-.058-.03-.077-.043-.037-.025-.042-.067-.06-.104a.27.27 0 0 0-.106-.109c-.04-.024-.09-.035-.125-.069h-.13l-.206-.224a2.185 2.185 0 0 1-.021.027l-.167-.078-.188-.189h-.04c-.124-.067-.147-.208-.244-.288-.009-.058.023-.12-.023-.176a6.806 6.806 0 0 0-.056.05l-.179-.188v-.044l-.128-.129h-.053l-.049-.103-.051-.002-.131-.127c.02-.056-.032-.075-.053-.114v-.3l-.056-.065c.01-.021.018-.046.033-.063.038-.045.042-.105.011-.138-.043-.045-.035-.091-.037-.143l.05-.056-.308-.302v-.178l.104-.082c-.003-.03.002-.055-.007-.062-.059-.044-.086-.132-.178-.129l-.125-.116v-.09c0-.009-.002-.02.003-.025l.136-.137.065-.14v-.081l-.103-.109v-.15l-.047-.053v-.157l.095-.094a421.3 421.3 0 0 0-.097-.175v-.245l.046-.046.008-.163.043-.043v-.218l-.043-.043-.004-.092c.004-.01.005-.02.01-.024.093-.064.104-.19.195-.25.01-.043-.011-.069-.039-.09-.04-.033-.051-.084-.077-.122-.024-.036-.026-.079-.051-.109-.028-.033-.062-.06-.088-.084v-.162l.038-.038c.024-.039.01-.08.008-.121l-.038-.039.102-.202-.059-.065v-.118l.1-.079v-.115l-.039-.039c0-.006-.004-.015-.001-.018a.6.6 0 0 0 .145-.198v-.172l-.102-.08v-.153l-.045-.059c-.003-.065-.03-.138.036-.204.018-.018.008-.065.011-.1-.086-.11-.222-.182-.252-.336-.003-.06.08-.103.044-.18l-.155-.101v-.113c.043-.081.15-.074.202-.153v-.31a72.8 72.8 0 0 0-.15-.133v-.128l.055-.055c.023-.024.05-.043.05-.084 0-.02.025-.04.046-.072v-.231l.109-.197c-.042-.074-.076-.146-.124-.213-.044-.061-.1-.131-.081-.242l.15-.123v-.126l-.101-.102v-.31l-.05-.049v-.218l.1-.064v-.29l-.049-.045c-.006-.064-.002-.14 0-.214l.043-.044v-.167l-.041-.042.044-.056v-.162l-.1-.067v-.285a12.892 12.892 0 0 1-.046-.052l.07-.101-.132-.08.103-.187-.145-.146v-.203l.101-.183c-.025-.053-.04-.111-.075-.151-.04-.047-.027-.094-.026-.143.059-.058.124-.111.127-.224l-.027-.03v-.306l-.051-.056v-.103l.197-.198c-.032-.065-.066-.127-.094-.192-.009-.022-.001-.05-.001-.074l.098-.098v-.404a9.76 9.76 0 0 0 .053-.067v-.112l-.066-.05-.085-.173c.001-.061.112-.084.033-.163.044-.044.086-.075.113-.116.027-.038.039-.086.061-.141.002-.04-.045-.057-.071-.088-.022-.026-.048-.049-.078-.08v-.208l.058-.095c-.042-.042-.092-.072-.109-.115-.015-.04-.024-.077-.059-.103l.05-.054v-.515l-.058-.068.057-.103.003-.05v-.08l-.14-.127c-.034-.092.017-.111.039-.15v-.303l.045-.045-.042-.054-.012-.112-.042-.042v-.363l.048-.054v-.462a37.3 37.3 0 0 1-.11-.116l.183-.367.082-.028v-.11c-.035-.035-.07-.072-.111-.117l.057-.112c.007-.026.022-.084-.045-.128V20.6l.1-.175v-.14l.052-.057v-.152l.04-.04c.024-.036.004-.078.01-.114-.039-.047-.086-.012-.124-.028-.078-.031-.07-.128-.131-.176v-.255c-.018-.02-.035-.039-.07-.075l.223-.211c.003-.069-.081-.078-.104-.17v-.118l.1-.1v-.362l.046-.046c.008-.16.008-.16-.093-.318v-.197l.084-.147.064-.064v-.175l-.08-.018c-.004-.014-.009-.037-.018-.059-.006-.015-.02-.026-.027-.04-.011-.021-.02-.043-.03-.065l.056-.063v-.21l-.084-.03c-.006-.015-.017-.03-.017-.045-.002-.094 0-.189 0-.282l.038-.04c.026-.054.012-.113.01-.17l-.043-.043v-.218l.095-.095v-.156c-.015-.03-.068-.049-.049-.103l.05-.055v-.153l-.058-.065.046-.092-.087-.17v-.137l.047-.052-.05-.056v-.084c-.034-.064-.06-.114-.09-.167.04-.086.067-.193.193-.204v-.16l-.052-.057v-.255l-.097-.098v-.468l.043-.054v-.152c.08-.047.102-.14.155-.212-.027-.028-.055-.032-.088-.01-.02.015-.04.027-.061.039-.021.012-.042.025-.063.034-.022.01-.045.015-.066.021-.048-.047.012-.054.022-.087v-.093l.053-.057V12.9l-.052-.056v-.905c0-.008.003-.017.004-.025l.042-.042v-.126c.023-.071.104-.104.07-.19l-.103-.073c-.021-.065-.003-.089.02-.117.029-.037.027-.095.07-.125-.034-.09.076-.15.048-.252a38.025 38.025 0 0 1-.1-.111c.003-.083.073-.102.103-.15v-.1l-.05-.057c-.008-.1-.008-.1-.1-.253v-.253a.19.19 0 0 0 .048-.155l.063-.085-.062-.08v-.1l.048-.053v-.26c-.037-.041-.083-.014-.122-.023-.03-.045-.085-.046-.126-.07-.002-.008-.009-.017-.006-.022L20.247 9v-.079a11.017 11.017 0 0 0-.043-.048l.137-.267a4.49 4.49 0 0 1-.04-.048v-.153l.05-.054v-.139l.11-.204a17.892 17.892 0 0 1-.056-.073c-.03-.06.018-.112.052-.174l-.106-.2v-.088l.097-.097v-.206l-.089-.165.042-.049v-.153l-.05-.054v-.463l.053-.058v-.1l.102-.101c0-.025.013-.068-.003-.09-.052-.073-.064-.174-.153-.216v-.211l-.091-.092c-.001-.103-.062-.18-.112-.29v-.174c-.02-.04-.073-.06-.053-.113l.05-.055v-.204l-.059-.066.055-.106v-.426l.063-.1-.056-.086v-.145l.049-.054v-.243l.052-.095c.011-.021.022-.043.036-.063.027-.047.012-.098.015-.148.002-.042 0-.085 0-.095-.071-.15-.075-.305-.205-.382v-.302l.109-.203-.053-.07v-.16c.024-.024.084-.056.09-.095.009-.071.059-.1.096-.142.034-.039.073-.074.109-.11.027-.156.062-.237.237-.393.072-.01.117-.037.137-.12.013-.05.073-.09.118-.141h.16l.047-.047h.217l.044.044.11-.102h.305l.047-.048h.261c.04-.06.088-.065.163-.041l.044.035h.21l.083.107h.374c.073.055.114.146.217.168.029.006.067.045.07.097.003.047.068.075.05.133-.015.051.048.067.05.108.004.05.001.1.001.16l.184.009.074.073v.16c.078.038.096.127.15.211v.254l-.041.041v.425l.044.044v.152l.053.057v.102c-.018.018-.035.037-.06.065l.164.322-.06.11.059.078v.096l-.05.054v.205l.047.055c-.034.034-.074.06-.092.096-.017.036-.013.083-.062.102l.054.059v.095l-.055.075c.018.068.067.091.102.135v.256c-.033.05-.068.108-.149.087v.083l.15.1c.013.07-.004.165.006.244l.07.108-.122.078v.39l.1.105v.101l-.053.06v.357a.422.422 0 0 0-.157.29c.024.046.076.065.05.138l.161.143v.083c-.02.077-.1.078-.153.115v.105l.05.053v.361l.088.086c.036.052-.015.13.062.165v.204l-.15.284v.086l.05.054v.104l-.075.075h-.101c-.03.04-.09.058-.08.122l.155.102v.182l.104.08c-.004.031 0 .053-.01.063-.058.069-.142.119-.162.217-.053.036-.032.091-.034.139l.048.053v.093l-.061.094.115.129c-.009.107-.1.107-.154.149v.103l.092.092c.014.058.03.116-.043.164v.26l-.048.048.049.056v.204l-.05.054v.453c.035.058.064.106.092.156.027.049-.016.123.064.161v.212l.047.048v.155l-.05.054v.36l-.05.055v.133l.097.19v.247l-.04.041v.171l.095.034v.138l-.158.123.052.052v.17c-.004.017-.066.031-.033.124l.188.155c.016.114-.092.124-.098.194-.005.071-.072.09-.103.137v.163c.093.034.085.143.152.2l-.047.047v.26l.048.053v.203l.045.05-.154.3.123.142-.064.083v.138l.108.192-.054.09v.13c-.064.072-.07.177-.156.217v.212l.093.093c-.009.136.124.228.113.372l-.14.124c-.008.033-.016.048-.016.064v.433c.064.035.05.09.052.16l-.102.072v.126l.05.054v.36l-.037.037c-.033.056-.001.116-.018.167l.05.05-.047.063v.2l-.048.05v.245c.035.069.086.13.095.198.013.086.062.148.106.275v.211l.05.05-.052.065v.202l-.047.046v.412c.06.038.05.118.1.166.017.017.003.065.003.095l-.046.046v.314l.042.054v.401l.055.066c0 .026.014.07-.002.092-.078.113-.113.248-.199.375v.238l-.048.061.094.176v.139c-.063.061-.113.141-.21.146.007.037.004.061.014.068.09.066.102.193.195.25v.106l-.044.044v.144a98.36 98.36 0 0 1-.057.076v.2c-.022.02-.034.033-.046.045v.477l.044.044v.152l.053.057v.102a7.65 7.65 0 0 0-.057.06c.02.05.036.105.065.153.021.035.059.062.097.1-.004.033 0 .078-.018.112-.014.029-.044.05-.034.092l.05.053v.101l-.054.058v.29l-.091.173.039.049v.101a9.67 9.67 0 0 1-.05.056l.084.073c.034.07.016.13.02.188.002.051 0 .102 0 .159l-.09.026c-.034.017-.006.065-.017.126l.105.068v.28l.049.055-.096.167v.304l.097.097v.157l-.046.054v.151l.05.065c0 .022.003.035 0 .04l-.149.14c.01.083-.037.144-.06.213l.052.062v.12c.05.038.11.086.154.121v.124c-.059.032-.128.045-.157.117l.108.205v.862l.097.097v.219l-.15.15.15.135v.386l-.041.042v.377l.098.07v.124l-.051.055v.308l-.092.092c-.003.016-.014.034-.01.046.028.076-.075.11-.054.187.017.061.088.108.046.201l.168.133c-.04.11-.04.11-.157.161v.108l.046.054v.2l.053.058v.101l-.05.055v.257l.043.044c.02.06 0 .128.007.194l-.105.199v.184l-.044.045.096.17v.144l-.059.067c.015.026.03.055.06.113v.143c0 .016 0 .042-.009.046-.07.037-.015.12-.056.158-.035.033-.025.078-.053.108-.029.031-.063.057-.086.078v.116l.098.098.006.114c-.031.022-.074.05-.104.072v.126l.05.054v.29c.03.058.046.105.074.143.03.04.077.07.107.111.031.045.052.099.08.153-.02.032-.04.067-.062.107l.06.08v.184l.098.184v.125a.503.503 0 0 1 .07.132c.017.045.078.06.09.118.01.045.04.086.068.146l.154.155.118.014c.04.034.004.082.021.12.033.077.128.07.177.13h.203l.057.053h.1l.056-.051c.051.003.097-.006.144.036.03.028.081.05.125.064.046.014.104-.008.136.052h.26l.054-.048h.152l.064.053c.072-.011.093-.065.14-.1h.164l.042.042h.293l.188.106h.145c.042-.082.136-.098.21-.146l.04.04h.296l.08.056c.076-.002.094-.074.144-.102l.038.038c.055.024.113.012.181.006l.022-.144h.174l.043.043h.311l.058-.049c.062-.039.081.088.149.053l.096.122.252-.13.066.057h.153l.105-.1h.155c.032.055.084.052.146.05.016-.009.038-.027.062-.048zm-5.906 25.78c.073.074.157.11.25.11h6.13c.1 0 .186-.036.256-.11a.353.353 0 0 0 .106-.252v-1.81a.348.348 0 0 0-.11-.252.346.346 0 0 0-.251-.11h-3.788c-.117 0-.176-.06-.176-.177v-9.591a.348.348 0 0 0-.11-.252.346.346 0 0 0-.25-.11h-1.806a.344.344 0 0 0-.251.11.347.347 0 0 0-.11.252v11.94c0 .094.036.178.11.252zm7.654-3.685c.058.541.199 1.053.421 1.536.222.482.515.907.878 1.275.363.368.795.658 1.296.87.5.211 1.06.317 1.681.317.62 0 1.18-.106 1.677-.318.498-.211.93-.501 1.295-.869.366-.368.66-.793.883-1.275.222-.483.363-.995.421-1.536.053-.377.088-.781.106-1.214.017-.432.026-.874.026-1.323 0-.45-.01-.887-.03-1.314-.021-.427-.055-.834-.102-1.222a4.907 4.907 0 0 0-.421-1.536 4.357 4.357 0 0 0-.883-1.271 4.077 4.077 0 0 0-1.295-.865 4.244 4.244 0 0 0-1.677-.318c-.62 0-1.181.106-1.681.318-.501.212-.933.5-1.296.865a4.388 4.388 0 0 0-.878 1.27 4.901 4.901 0 0 0-.422 1.537c-.052.388-.09.795-.114 1.222a23.82 23.82 0 0 0 .005 2.641c.026.436.063.839.11 1.21zm2.52-5.083c.053-.396.22-.736.503-1.02.282-.284.7-.426 1.253-.426.554 0 .973.14 1.258.422.286.28.452.622.5 1.024.046.39.079.8.096 1.229a32.162 32.162 0 0 1 0 2.648c-.017.437-.05.842-.097 1.215-.053.402-.22.745-.503 1.029-.283.284-.7.426-1.254.426-.553 0-.972-.142-1.258-.426a1.689 1.689 0 0 1-.498-1.03 17.752 17.752 0 0 1-.106-1.219 24.48 24.48 0 0 1 0-2.643c.023-.43.058-.838.106-1.229zm7.658 6.668c.217.483.515.903.893 1.26.378.356.83.638 1.355.844.525.206 1.098.31 1.72.31.633 0 1.221-.098 1.764-.292a4.173 4.173 0 0 0 1.399-.818c.39-.35.693-.767.91-1.25a3.88 3.88 0 0 0 .326-1.61c0-.624-.111-1.167-.334-1.628a3.5 3.5 0 0 0-.911-1.172 4.618 4.618 0 0 0-1.382-.78 13.139 13.139 0 0 0-1.737-.5c-.468-.093-.852-.247-1.15-.46-.3-.212-.449-.492-.449-.84 0-.366.135-.67.404-.912.27-.242.656-.363 1.16-.363.515 0 .91.139 1.185.415.275.276.413.595.413.957v.277c0 .095.036.18.11.254a.34.34 0 0 0 .249.11h1.81a.341.341 0 0 0 .25-.11.348.348 0 0 0 .109-.251v-.274a3.698 3.698 0 0 0-1.16-2.707 3.994 3.994 0 0 0-1.31-.813 4.534 4.534 0 0 0-1.657-.295c-.604 0-1.155.098-1.653.294a4.108 4.108 0 0 0-1.303.81 3.65 3.65 0 0 0-1.17 2.696c0 .578.106 1.083.317 1.513.211.431.496.797.854 1.098.358.3.785.552 1.28.752.497.2 1.026.36 1.588.478.679.16 1.16.344 1.445.553.284.21.426.51.426.899 0 .425-.163.779-.488 1.062-.325.283-.757.425-1.296.425-.567 0-1.004-.141-1.308-.424a1.386 1.386 0 0 1-.457-1.06v-.539c0-.1-.037-.185-.11-.256a.349.349 0 0 0-.249-.105l-1.81-.006a.34.34 0 0 0-.25.111.349.349 0 0 0-.11.252v.54c.002.553.11 1.072.327 1.555zM.272 79.528c.074.073.158.11.252.11h4.258c.558 0 1.065-.093 1.521-.278a3.374 3.374 0 0 0 1.173-.786c.326-.339.576-.75.75-1.232.172-.483.259-1.019.259-1.608a3.784 3.784 0 0 0-.282-1.395 3.284 3.284 0 0 0-.32-.596 2.562 2.562 0 0 0-.413-.473c-.122-.1-.122-.208 0-.326a3.14 3.14 0 0 0 .688-1.038c.183-.427.274-.84.274-1.241a3.755 3.755 0 0 0-1.033-2.61 3.574 3.574 0 0 0-1.14-.79 3.488 3.488 0 0 0-1.427-.292H.527a.352.352 0 0 0-.254.111.345.345 0 0 0-.11.252v11.94c0 .094.036.178.11.251zm2.365-9.835c0-.123.059-.185.176-.185H4.69c.311 0 .587.115.828.344.24.23.361.5.361.813 0 .312-.12.586-.361.821a1.15 1.15 0 0 1-.828.353H2.813c-.117 0-.176-.058-.176-.176v-1.97zm0 4.867c0-.124.059-.186.176-.186H4.69c.388 0 .696.14.925.42.229.28.343.593.343.94 0 .36-.114.677-.343.954-.23.277-.537.415-.925.415H2.813c-.117 0-.176-.059-.176-.177V74.56zm6.274 4.786c0 .053.021.11.062.168.059.083.162.124.308.124h1.894c.194 0 .308-.092.343-.274l.502-1.863c.036-.177.127-.266.273-.266h2.74c.088 0 .15.027.185.08a.774.774 0 0 1 .088.186l.564 1.863c.058.182.173.274.343.274h1.893c.147 0 .25-.041.309-.124.047-.058.067-.115.061-.168a.31.31 0 0 0-.008-.07l-3.215-12.029c-.035-.182-.15-.274-.343-.274h-2.414c-.194 0-.308.092-.343.274L8.92 79.276a.285.285 0 0 0-.009.07zm4.668-9.185c.012-.047.041-.07.089-.07h.035c.047 0 .076.023.088.07l.863 4.337c.012.03.017.056.017.08 0 .082-.053.123-.158.123h-1.656c-.106 0-.159-.041-.159-.124 0-.023.003-.05.01-.08l.871-4.336zm6.127 9.366c.073.074.157.11.251.11h1.806a.345.345 0 0 0 .25-.11.348.348 0 0 0 .11-.251v-6.262c0-.059.021-.094.063-.106.04-.012.073.012.097.07l2.457 6.35c.023.071.07.14.14.208.07.068.186.102.344.102h2.131a.345.345 0 0 0 .251-.11.348.348 0 0 0 .11-.252v-11.94a.347.347 0 0 0-.11-.252.346.346 0 0 0-.25-.11H25.55a.345.345 0 0 0-.251.11.348.348 0 0 0-.11.252v6.8c0 .065-.021.103-.062.115-.041.012-.074-.012-.097-.071l-2.475-6.88a.505.505 0 0 0-.14-.225c-.07-.068-.174-.102-.309-.102h-2.149a.345.345 0 0 0-.251.111.348.348 0 0 0-.11.252v11.94c0 .094.037.178.11.251zm9.822-3.687c.059.542.2 1.054.422 1.537.223.482.515.908.879 1.276.363.368.795.658 1.296.87a4.28 4.28 0 0 0 1.684.318 4.58 4.58 0 0 0 1.713-.318 4.283 4.283 0 0 0 1.365-.852c.378-.357.675-.776.89-1.26.214-.482.321-.994.321-1.536v-3.038a.347.347 0 0 0-.11-.251.346.346 0 0 0-.251-.111h-3.514a.345.345 0 0 0-.251.11.348.348 0 0 0-.11.252v1.722c0 .094.036.177.11.247.072.071.155.106.25.106h1.217c.123.006.184.069.184.187v.783c0 .416-.168.757-.504 1.024-.336.266-.773.4-1.31.4-.555 0-.975-.142-1.261-.426a1.687 1.687 0 0 1-.5-1.03 17.632 17.632 0 0 1-.106-1.22 24.451 24.451 0 0 1 0-2.64c.024-.429.059-.838.106-1.23.053-.396.221-.736.505-1.02.283-.284.701-.427 1.256-.427.286 0 .537.048.754.143a1.67 1.67 0 0 1 .89.887c.078.187.118.372.118.556v.018c0 .095.036.18.11.254a.346.346 0 0 0 .252.112h1.803c.1 0 .186-.037.257-.11a.355.355 0 0 0 .106-.253v-.017a4.24 4.24 0 0 0-.322-1.67 3.813 3.813 0 0 0-.89-1.298 4.152 4.152 0 0 0-1.356-.847 4.675 4.675 0 0 0-1.722-.31c-.627 0-1.19.106-1.688.318-.498.212-.929.5-1.292.866-.363.365-.656.789-.879 1.271a4.9 4.9 0 0 0-.422 1.537c-.053.389-.09.797-.114 1.223a23.786 23.786 0 0 0 .005 2.636c.025.437.062.84.11 1.211zm10.408 3.687c.073.074.157.11.251.11h6.623a.345.345 0 0 0 .251-.11.348.348 0 0 0 .11-.251v-1.811a.347.347 0 0 0-.11-.252.346.346 0 0 0-.25-.11H42.53c-.118 0-.176-.059-.176-.177v-2.172c0-.118.058-.177.176-.177h4.06a.34.34 0 0 0 .255-.11.355.355 0 0 0 .106-.252v-1.81c0-.101-.036-.186-.11-.257a.352.352 0 0 0-.251-.106h-4.06c-.118-.005-.177-.067-.177-.185v-2.164c0-.124.06-.186.177-.186h4.21a.33.33 0 0 0 .246-.11.355.355 0 0 0 .106-.252v-1.81a.354.354 0 0 0-.106-.252.332.332 0 0 0-.246-.11h-6.553a.345.345 0 0 0-.251.11.347.347 0 0 0-.11.252v11.94a.35.35 0 0 0 .11.252zm9.021 0c.073.074.157.11.251.11h6.13a.34.34 0 0 0 .255-.11.355.355 0 0 0 .106-.251v-1.811a.347.347 0 0 0-.11-.252.346.346 0 0 0-.251-.11H51.55c-.118 0-.177-.059-.177-.177v-9.59a.347.347 0 0 0-.11-.252.346.346 0 0 0-.25-.111h-1.806a.345.345 0 0 0-.251.11.348.348 0 0 0-.11.252v11.94c0 .095.037.179.11.252zm8.025 0c.073.074.157.11.25.11h6.624a.345.345 0 0 0 .251-.11.348.348 0 0 0 .11-.251v-1.811a.347.347 0 0 0-.11-.252.346.346 0 0 0-.251-.11h-4.28c-.118 0-.177-.059-.177-.177v-2.172c0-.118.06-.177.177-.177h4.06a.34.34 0 0 0 .255-.11.355.355 0 0 0 .106-.252v-1.81c0-.101-.037-.186-.11-.257a.352.352 0 0 0-.251-.106h-4.06c-.118-.005-.177-.067-.177-.185v-2.164c0-.124.059-.186.176-.186h4.21a.33.33 0 0 0 .247-.11.355.355 0 0 0 .105-.252v-1.81a.354.354 0 0 0-.105-.252.332.332 0 0 0-.247-.11h-6.552a.345.345 0 0 0-.251.11.347.347 0 0 0-.11.252v11.94a.35.35 0 0 0 .11.252zm8.586-2.1c.217.483.514.904.893 1.26.378.357.83.638 1.355.845.525.206 1.098.309 1.72.309.633 0 1.221-.097 1.764-.292a4.174 4.174 0 0 0 1.399-.817c.39-.35.694-.768.91-1.251a3.88 3.88 0 0 0 .326-1.609c0-.625-.111-1.168-.334-1.628a3.503 3.503 0 0 0-.911-1.173 4.615 4.615 0 0 0-1.382-.779 13.153 13.153 0 0 0-1.737-.5c-.468-.094-.852-.247-1.15-.46-.3-.212-.449-.493-.449-.84 0-.367.135-.67.404-.912.27-.242.656-.363 1.16-.363.515 0 .91.138 1.186.414.275.276.412.596.412.958v.276c0 .095.037.18.11.254a.34.34 0 0 0 .249.111h1.81a.342.342 0 0 0 .25-.11.35.35 0 0 0 .11-.252v-.274a3.702 3.702 0 0 0-1.16-2.707 3.993 3.993 0 0 0-1.311-.812 4.535 4.535 0 0 0-1.656-.296c-.604 0-1.156.098-1.654.295a4.108 4.108 0 0 0-1.302.809 3.647 3.647 0 0 0-1.17 2.696c0 .579.105 1.083.317 1.514.21.43.495.797.853 1.097.358.301.785.552 1.281.752.496.2 1.025.36 1.587.478.68.16 1.16.344 1.445.554.284.21.426.509.426.898 0 .425-.162.779-.487 1.062-.325.283-.757.425-1.296.425-.568 0-1.004-.141-1.31-.424a1.386 1.386 0 0 1-.456-1.06v-.538c0-.1-.037-.186-.11-.256a.35.35 0 0 0-.249-.106l-1.81-.005a.342.342 0 0 0-.25.11.35.35 0 0 0-.109.252v.54c0 .554.109 1.072.326 1.555z"/></svg>