<svg xmlns="http://www.w3.org/2000/svg" width="120" height="22" viewBox="0 0 120 22">
  <path fill="#FFF" d="M78.7083365,80.5588596 L72.2612741,80.5588596 L72.2612741,72.1651889 L65.5500863,72.1651889 L65.5500863,80.5588596 L59.1030239,80.5588596 L59.1030239,59.4411404 L65.5500863,59.4411404 L65.5500863,67.7477834 L72.2612741,67.7477834 L72.2612741,59.4411404 L78.7083365,59.4411404 L78.7083365,80.5588596 Z M101.134989,63.6844905 L101.134989,80.5588596 L94.6879268,80.5588596 L94.6879268,59.4411404 L106.345464,59.4411404 L107.314925,63.6844905 L101.134989,63.6844905 Z M89.9216628,80.5588596 L83.4746004,80.5588596 L83.4746004,59.4411404 L89.9216628,59.4411404 L89.9216628,80.5588596 Z M116.058078,80.5588596 L109.614017,80.5588596 L109.614017,59.4411404 L116.058078,59.4411404 L116.058078,80.5588596 Z M147.843176,75.1691447 C147.843176,76.3185104 148.992722,76.8496794 150.844601,76.8496794 C152.876566,76.8496794 155.085616,76.4055381 156.586329,75.7843405 L156.058078,80.3818033 C154.377279,80.735916 152.876566,81 150.142268,81 C144.931793,81 141.399115,78.9443459 141.399115,74.6379757 C141.399115,67.2166144 151.468898,68.7170918 151.468898,65.2719956 C151.468898,63.9485745 150.493434,63.2433502 148.110302,63.2433502 C145.994297,63.2433502 142.722743,63.9485745 140.780821,64.9208839 L141.489157,60.0593371 C143.43108,59.3511117 146.078337,59 148.200345,59 C153.584903,59 158,60.7675624 158,66.0702496 C158,73.1344973 147.843176,71.8110763 147.843176,75.1691447 Z M129.657537,64.4767426 C135.657387,64.4767426 139.457192,67.570727 139.457192,72.960442 C139.457192,78.8783249 135.396263,81 128.772117,81 C126.211901,81 123.120432,80.8229437 120.914384,80.5588596 L120.914384,59.4411404 L127.361447,59.4411404 L127.361447,64.4767426 L129.657537,64.4767426 Z M133.100173,72.8704133 C133.100173,70.1335425 131.776544,68.2759514 128.417949,68.2759514 L127.361447,68.2759514 L127.361447,77.0027281 C127.736625,77.0237348 128.087792,77.0237348 128.417949,77.0237348 C131.596458,77.0237348 133.100173,75.5232574 133.100173,72.8704133 Z M46.743153,64.4767426 C52.7460044,64.4767426 56.5428078,67.570727 56.5428078,72.960442 C56.5428078,78.8783249 52.4818789,81 45.8607338,81 C43.2975163,81 40.2090493,80.8229437 38,80.5588596 L38,59.4411404 L44.4470624,59.4411404 L44.4470624,64.4767426 L46.743153,64.4767426 Z M50.1887897,72.8704133 C50.1887897,70.1335425 48.8621595,68.2759514 45.5065656,68.2759514 L44.4470624,68.2759514 L44.4470624,77.0027281 C44.8222406,77.0237348 45.1764088,77.0237348 45.5065656,77.0237348 C48.6850754,77.0237348 50.1887897,75.5232574 50.1887897,72.8704133 Z" transform="matrix(1 0 0 -1 -38 81)"/>
</svg>
