<svg xmlns="http://www.w3.org/2000/svg" width="119" height="20" viewBox="0 0 119 20">
  <path fill="#FFF" fill-rule="evenodd" d="M121.514158,69.0865311 C120.784744,69.9430496 119.792928,70.7478292 118.39788,71.244349 L122.993106,79.5330135 L115.537154,79.5330135 L111.949153,72.0434765 L108.72372,72.0434765 L108.72372,79.5330135 L102.293827,79.5330135 L102.293827,60.5700271 L114.413496,60.5700413 C117.086303,60.5669979 119.063514,61.0509091 120.538609,62.1174268 C121.915251,63.1117709 122.422074,64.4043747 122.423358,66.0430642 C122.42507,67.2021903 122.244429,68.2287082 121.514158,69.0865311 Z M115.547427,67.6400148 C114.889071,68.278708 113.54753,68.1678389 112.408462,68.1678389 L108.72372,68.1678389 L108.72372,64.4330703 L111.740688,64.4330703 C113.965745,64.4204616 114.74139,64.5652437 115.201554,64.7882863 C115.841076,65.0969808 116.029851,65.650457 116.046973,66.1708898 C116.06752,66.8126266 115.982336,67.2204511 115.547427,67.6400148 Z M125.648749,79.5420135 L125.648749,60.5607805 L132.439924,60.5607805 L132.439924,79.5420135 L125.648749,79.5420135 Z M154.062999,63.3846829 C156.032076,65.1185895 157.010193,67.4129287 156.99992,70.2655266 C156.991787,72.9707338 155.921208,75.1998559 153.7869,76.9546319 C151.654732,78.7067992 148.903161,79.5333179 145.939273,79.5333179 L136.474434,79.5359266 L136.478714,60.5559979 L145.160203,60.5559979 C148.990058,60.5673022 151.956943,61.5372986 154.062999,63.3846829 Z M149.205372,74.1015992 C150.175356,73.0263858 150.638517,71.5898695 150.642798,70.0437883 C150.648363,68.4994463 150.094453,67.0785821 149.132602,66.0116296 C148.076577,64.8429383 146.505168,64.4429398 144.722298,64.4372877 L142.906038,64.4316355 L142.906038,75.5690422 L144.789503,75.5689849 C146.539841,75.5737675 148.139502,75.2802904 149.205372,74.1015992 Z M61.0249296,60.5692587 L77.1204209,60.5692587 L77.1204209,64.4262008 L67.4578182,64.4279399 L67.4548218,68.1709693 L75.7403548,68.1709693 L75.7403548,72.038346 L67.456106,72.038346 L67.4535376,75.5757241 L77.1204209,75.5757241 L77.1204209,79.5322309 L61.0249296,79.5322309 L61.0249296,60.5692587 Z M58.5999687,73.5201231 C58.5986845,77.3305435 56.696813,79.906186 49.1556766,79.9670554 C49.0632156,79.9687945 48.5666658,79.9687945 48.4729206,79.9687945 C41.7909011,79.9687945 38,76.8648931 38,73.5170796 L44.4384533,73.5327317 C45.02618,74.8583789 46.1541186,75.7175061 48.6043351,75.7288104 L49.2228821,75.7288104 C51.5386877,75.711854 52.6221081,75.0162044 52.6221081,73.8827304 C52.6221081,73.0136033 52.3280307,72.2427366 48.5024568,71.7762166 C48.4181289,71.7649123 47.9297123,71.7036082 47.8470966,71.6983908 C42.1098059,71.2431751 38.8621132,68.7614453 38.7461089,65.9618906 C38.618547,62.8701631 42.1898532,59.9997391 48.0979399,60.0153912 C48.1818397,60.0166956 48.6702564,60.0166956 48.7541562,60.0184347 C54.7910891,60.1197387 57.9420401,63.180162 58.3551182,66.5040625 L52.1152848,66.5040625 C51.9654637,64.7162431 50.6795709,64.3862444 48.653562,64.3779835 C48.6030509,64.3762444 48.148023,64.3762444 48.0979399,64.3762444 C46.135712,64.3762444 44.7325307,65.026242 44.7029945,65.939282 C44.6610446,67.2410163 45.9482216,67.4884066 48.5191511,67.8014489 C48.6073315,67.8110141 49.0970324,67.876666 49.1894934,67.886666 C56.3346741,68.7414454 58.2767832,70.9288285 58.5999687,73.5201231 Z M89.6976426,75.4825505 C91.9042929,75.5168982 92.9303532,74.3729894 93.3374384,73.1129942 L99.6162253,73.1129942 C98.7305688,77.7412377 95.4126743,79.8164472 90.4647265,79.9842727 C90.418496,79.9851423 89.2259203,80.0012292 89.1801179,79.9999248 C82.0738906,79.9299251 78.7465788,75.9090706 78.7435823,69.6638767 C78.7029166,63.1586838 82.5747211,60.0482607 89.2357657,60 C89.280712,60 90.134264,60.0069565 90.1792104,60.0082608 C94.905851,60.1147822 98.4942796,62.3308608 99.6162253,66.8764959 L93.3472838,66.8764959 C92.928641,65.6721526 91.6834139,64.6604173 89.7156212,64.5012874 C89.6835167,64.498244 89.650128,64.5025918 89.6175954,64.5025918 C86.8082363,64.442592 85.1751867,65.828239 85.1751867,69.6425724 C85.1751867,73.8955999 86.5394145,75.4825505 89.5983327,75.4825505 L89.6976426,75.4825505 Z" transform="translate(-38 -60)"/>
</svg>
